<?xml version="1.0" encoding="UTF-8" standalone="no"?>
<svg
   xmlns:dc="http://purl.org/dc/elements/1.1/"
   xmlns:cc="http://creativecommons.org/ns#"
   xmlns:rdf="http://www.w3.org/1999/02/22-rdf-syntax-ns#"
   xmlns:svg="http://www.w3.org/2000/svg"
   xmlns="http://www.w3.org/2000/svg"
   xmlns:sodipodi="http://sodipodi.sourceforge.net/DTD/sodipodi-0.dtd"
   xmlns:inkscape="http://www.inkscape.org/namespaces/inkscape"
   version="1.1"
   id="svg2"
   xml:space="preserve"
   width="354.86783"
   height="354.86783"
   viewBox="0 0 354.86783 354.86783"
   sodipodi:docname="data-injection.svg"
   inkscape:export-filename="/home/sven/data-injection.png"
   inkscape:export-xdpi="72"
   inkscape:export-ydpi="72"
   inkscape:version="1.0.2 (1.0.2+r75+1)"><metadata
     id="metadata8"><rdf:RDF><cc:Work
         rdf:about=""><dc:format>image/svg+xml</dc:format><dc:type
           rdf:resource="http://purl.org/dc/dcmitype/StillImage" /><dc:title></dc:title></cc:Work></rdf:RDF></metadata><defs
     id="defs6"><clipPath
       clipPathUnits="userSpaceOnUse"
       id="clipPath20"><path
         d="M 0,720 H 720 V 0 H 0 Z"
         id="path18"
         inkscape:connector-curvature="0" /></clipPath><clipPath
       clipPathUnits="userSpaceOnUse"
       id="clipPath28"><path
         d="M 107.602,612.398 H 612.398 V 107.602 H 107.602 Z"
         id="path26"
         inkscape:connector-curvature="0" /></clipPath></defs><sodipodi:namedview
     pagecolor="#ffffff"
     bordercolor="#666666"
     borderopacity="1"
     objecttolerance="10"
     gridtolerance="10"
     guidetolerance="10"
     inkscape:pageopacity="0"
     inkscape:pageshadow="2"
     inkscape:window-width="1920"
     inkscape:window-height="1016"
     id="namedview4"
     showgrid="false"
     inkscape:snap-global="false"
     inkscape:zoom="1.4142136"
     inkscape:cx="62.406473"
     inkscape:cy="149.28572"
     inkscape:window-x="0"
     inkscape:window-y="27"
     inkscape:window-maximized="1"
     inkscape:current-layer="g10"
     inkscape:document-rotation="0" /><g
     id="g10"
     inkscape:groupmode="layer"
     inkscape:label="injection-1674900"
     transform="matrix(1.3333333,0,0,-1.3333333,0,959.99998)"><path
       d="M 0,453.84912 H 266.15088 V 720 H 0 Z"
       style="fill:#989898;fill-opacity:1;fill-rule:nonzero;stroke:none;stroke-width:0.369654"
       id="path12"
       inkscape:connector-curvature="0" /><g
       id="g24"
       transform="matrix(0.369654,0,0,0.369654,0,453.84912)" /><path
       d="m 226.37552,586.92456 c 0,-51.52829 -41.77201,-93.29993 -93.29993,-93.29993 -51.528289,0 -93.3003,41.77164 -93.3003,93.29993 0,51.52829 41.772011,93.29993 93.3003,93.29993 51.52792,0 93.29993,-41.77164 93.29993,-93.29993"
       style="opacity:0.5;fill:#e8e8e8;fill-opacity:1;fill-rule:nonzero;stroke:none;stroke-width:0.369654"
       id="path30"
       inkscape:connector-curvature="0" /><path
       d="m 120.02153,544.52284 -26.121729,22.8847 86.915979,99.20934 26.12173,-22.88469 z"
       style="fill:#e8e8e8;fill-opacity:0.60080588;fill-rule:nonzero;stroke:none;stroke-width:0.369654"
       id="path40"
       inkscape:connector-curvature="0" /><g
       id="g42"
       transform="matrix(0.5567647,0,0,0.5567647,121.40854,546.10599)"
       style="stroke-width:0.663932"><path
         d="M 0,0 -46.917,41.103 2.2072189,96.098302 84.571447,96.266003 Z"
         style="fill:#0220b1;fill-opacity:1;fill-rule:nonzero;stroke:none;stroke-width:0.663932"
         id="path44"
         inkscape:connector-curvature="0"
         sodipodi:nodetypes="ccccc" /></g><g
       id="g46"
       transform="matrix(0.5567647,0,0,0.5567647,220.52585,631.82727)"
       style="stroke-width:0.663932"><path
         d="M 0,0 -95.729,83.867 -84.104,97.136 11.625,13.269 Z"
         style="fill:#0220b1;fill-opacity:1;fill-rule:nonzero;stroke:none;stroke-width:0.663932"
         id="path48"
         inkscape:connector-curvature="0" /></g><path
       d="m 204.04306,659.32605 -7.38827,6.47239 10.47943,11.96153 7.38827,-6.47239 z"
       style="fill:#e8e8e8;fill-opacity:0.64614558;fill-rule:nonzero;stroke:none;stroke-width:0.369654"
       id="path52"
       inkscape:connector-curvature="0" /><path
       d="m 49.549376,488.03795 -5.880549,-1.92139 56.248824,64.20443 2.374599,-2.08007 z"
       style="fill:#e8e8e8;fill-opacity:1;fill-rule:nonzero;stroke:none;stroke-width:0.369654"
       id="path56"
       inkscape:connector-curvature="0" /><g
       id="g58"
       transform="matrix(0.5567647,0,0,0.5567647,230.00165,657.72607)"
       style="stroke-width:0.663932"><path
         d="m 0,0 -68.874,60.34 9.41,10.742 68.875,-60.34 z"
         style="fill:#3b3a3a;fill-opacity:1;fill-rule:nonzero;stroke:none;stroke-width:0.663932"
         id="path60"
         inkscape:connector-curvature="0" /></g><g
       id="g62"
       transform="matrix(0.5567647,0,0,0.5567647,108.18371,541.21365)"
       style="stroke-width:0.663932"><path
         d="m 0,0 -28.75,25.188 7.196,8.214 28.75,-25.188 z"
         style="fill:#bcbec0;fill-opacity:1;fill-rule:nonzero;stroke:none;stroke-width:0.663932"
         id="path64"
         inkscape:connector-curvature="0" /></g><g
       id="g66"
       transform="matrix(0.5567647,0,0,0.5567647,112.80458,542.76184)"
       style="stroke-width:0.66393218;font-variation-settings:normal;opacity:1;vector-effect:none;fill:#e8e8e8;fill-opacity:1;stroke:none;stroke-linecap:butt;stroke-linejoin:miter;stroke-miterlimit:4;stroke-dasharray:none;stroke-dashoffset:0;stroke-opacity:1;stop-color:#000000;stop-opacity:1"><path
         d="m 0,0 -35.385,31 7.196,8.215 L 7.196,8.214 Z"
         style="fill:#e8e8e8;fill-opacity:1;fill-rule:nonzero;stroke:none;stroke-width:0.66393218;font-variation-settings:normal;vector-effect:none;stroke-linecap:butt;stroke-linejoin:miter;stroke-miterlimit:4;stroke-dasharray:none;stroke-dashoffset:0;stroke-opacity:1;stop-color:#000000;stop-opacity:1"
         id="path68"
         inkscape:connector-curvature="0" /></g><g
       id="g70"
       transform="matrix(0.5567647,0,0,0.5567647,193.22195,628.07662)"
       style="stroke-width:0.66393201;font-variation-settings:normal;opacity:1;vector-effect:none;fill:#3b3a3a;fill-opacity:1;stroke-linecap:butt;stroke-linejoin:miter;stroke-miterlimit:4;stroke-dasharray:none;stroke-dashoffset:0;stroke-opacity:1;stop-color:#000000;stop-opacity:1;stroke:none"><path
         d="m 0,0 -46.917,41.103 2.768,3.16 L 2.768,3.159 Z"
         style="fill:#3b3a3a;fill-opacity:1;fill-rule:nonzero;stroke:none;stroke-width:0.66393201;font-variation-settings:normal;vector-effect:none;stroke-linecap:butt;stroke-linejoin:miter;stroke-miterlimit:4;stroke-dasharray:none;stroke-dashoffset:0;stroke-opacity:1;stop-color:#000000;stop-opacity:1"
         id="path72"
         inkscape:connector-curvature="0" /></g><g
       id="g74"
       transform="matrix(0.5567647,0,0,0.5567647,190.60209,625.08624)"
       style="stroke-width:0.663932"><path
         d="m 0,0 -46.917,41.103 2.768,3.16 L 2.768,3.159 Z"
         style="fill:#3b3a3a;fill-opacity:1;fill-rule:nonzero;stroke:none;stroke-width:0.663932"
         id="path76"
         inkscape:connector-curvature="0" /></g><g
       id="g78"
       transform="matrix(0.5567647,0,0,0.5567647,187.98229,622.09597)"
       style="stroke-width:0.66393201;font-variation-settings:normal;opacity:1;vector-effect:none;fill:#3b3a3a;fill-opacity:1;stroke-linecap:butt;stroke-linejoin:miter;stroke-miterlimit:4;stroke-dasharray:none;stroke-dashoffset:0;stroke-opacity:1;stop-color:#000000;stop-opacity:1;stroke:none"><path
         d="m 0,0 -46.917,41.103 2.768,3.159 L 2.768,3.159 Z"
         style="fill:#3b3a3a;fill-opacity:1;fill-rule:nonzero;stroke:none;stroke-width:0.66393201;font-variation-settings:normal;vector-effect:none;stroke-linecap:butt;stroke-linejoin:miter;stroke-miterlimit:4;stroke-dasharray:none;stroke-dashoffset:0;stroke-opacity:1;stop-color:#000000;stop-opacity:1"
         id="path80"
         inkscape:connector-curvature="0" /></g><g
       id="g82"
       transform="matrix(0.5567647,0,0,0.5567647,185.3626,619.10559)"
       style="stroke-width:0.66393201;font-variation-settings:normal;opacity:1;vector-effect:none;fill:#3b3a3a;fill-opacity:1;stroke-linecap:butt;stroke-linejoin:miter;stroke-miterlimit:4;stroke-dasharray:none;stroke-dashoffset:0;stroke-opacity:1;stop-color:#000000;stop-opacity:1;stroke:none"><path
         d="m 0,0 -46.917,41.103 2.768,3.159 L 2.768,3.159 Z"
         style="fill:#3b3a3a;fill-opacity:1;fill-rule:nonzero;stroke:none;stroke-width:0.66393201;font-variation-settings:normal;vector-effect:none;stroke-linecap:butt;stroke-linejoin:miter;stroke-miterlimit:4;stroke-dasharray:none;stroke-dashoffset:0;stroke-opacity:1;stop-color:#000000;stop-opacity:1"
         id="path84"
         inkscape:connector-curvature="0" /></g><g
       id="g86"
       transform="matrix(0.5567647,0,0,0.5567647,182.74275,616.1152)"
       style="stroke-width:0.66393201;font-variation-settings:normal;opacity:1;vector-effect:none;fill:#3b3a3a;fill-opacity:1;stroke-linecap:butt;stroke-linejoin:miter;stroke-miterlimit:4;stroke-dasharray:none;stroke-dashoffset:0;stroke-opacity:1;stop-color:#000000;stop-opacity:1;stroke:none"><path
         d="m 0,0 -46.917,41.103 2.768,3.16 L 2.768,3.159 Z"
         style="fill:#3b3a3a;fill-opacity:1;fill-rule:nonzero;stroke:none;stroke-width:0.66393201;font-variation-settings:normal;vector-effect:none;stroke-linecap:butt;stroke-linejoin:miter;stroke-miterlimit:4;stroke-dasharray:none;stroke-dashoffset:0;stroke-opacity:1;stop-color:#000000;stop-opacity:1"
         id="path88"
         inkscape:connector-curvature="0" /></g><path
       style="fill:#cc3d80;fill-opacity:1;stroke-width:1.04784"
       d="m 145.29633,587.61049 c -1.77704,-0.0199 -1.70369,2.24053 -2.41061,3.19695 -1.72245,0.62907 -2.9268,2.4606 -4.8564,2.52224 -0.97358,-0.35834 -2.16719,-0.7459 -3.04679,0.10021 -1.22297,0.86734 -1.16722,2.96139 0.2019,3.65525 0.95786,0.3571 0.6794,1.30977 0.68849,2.08879 0,1.47685 0,2.95369 0,4.43054 -2.04029,0.31041 -2.38199,3.63054 -0.42735,4.32574 1.24359,0.83955 2.7482,-1.13284 3.84581,0.11852 1.26213,1.17649 3.46854,1.34757 4.16231,3.11544 -0.0743,1.13652 0.70895,2.21786 1.91558,2.26055 1.17891,0.16043 2.56611,-0.75836 2.39436,-2.04551 0.3314,-1.59057 2.11772,-2.05323 3.36044,-2.73615 0.91739,-0.65081 1.95518,-1.30118 3.09423,-0.72819 0.96244,0.40131 2.13713,0.12341 2.59611,-0.87828 0.81215,-1.28044 -0.0824,-3.09729 -1.45582,-3.53621 0,-2.01975 0,-4.03947 0,-6.05921 1.99426,-0.31272 2.39177,-3.51967 0.511,-4.28419 -1.28652,-0.77672 -2.64826,0.79711 -3.9155,0.057 -1.12343,-1.24741 -3.10517,-1.41835 -4.02279,-2.89794 -0.28883,-1.06245 -0.35266,-2.40075 -1.7341,-2.65375 -0.29184,-0.0817 -0.60169,-0.10226 -0.90087,-0.0517 z m 4.72823,5.37612 c 0.70295,0.50411 2.10874,0.83626 2.25008,1.66459 -4.53546,0.0247 -9.09518,0.003 -13.64029,0.011 1.49223,-1.13731 3.24423,-1.86 4.78726,-2.91904 1.37852,0.251 3.04447,0.6143 4.13335,-0.18183 0.82271,0.47607 1.64627,0.95069 2.4696,1.42568 z m 2.62392,2.948 c 0.86614,1.18521 -0.12783,2.56303 -0.86909,3.51602 -0.95599,1.09794 -1.3557,2.50685 -2.15919,3.70188 -1.11238,1.92637 -2.22573,3.85215 -3.3429,5.77575 -1.54131,0.18299 -2.36708,-1.38625 -2.85485,-2.58983 -0.49787,-1.40172 -1.50795,-2.50044 -2.17133,-3.81429 -1.08615,-1.88113 -2.1719,-3.76251 -3.25821,-5.64355 0.63423,-1.40843 2.39148,-1.34175 3.67931,-1.16172 1.46228,0.26912 2.91872,-0.0556 4.3877,0.0287 2.17555,0.002 4.3511,0.005 6.52664,0.006 0.0206,0.0598 0.0416,0.12279 0.0618,0.18041 z m -12.09989,7.51979 c 1.14565,2.02787 2.3663,4.01355 3.45656,6.07252 -1.6921,-1.18109 -3.97667,-1.60163 -5.22639,-3.35113 0.0757,-0.95995 -0.53405,-1.78887 -1.30624,-2.34378 -1.11537,-0.81753 -0.29089,-2.15198 -0.51066,-3.26683 0.0445,-0.80644 -0.23023,-2.65858 0.25733,-2.78633 1.18165,1.84898 2.20609,3.79189 3.3294,5.67555 z m 13.70283,-6.01981 c -0.26326,2.04967 0.58082,4.24346 -0.33576,6.19093 -0.89655,0.49829 -1.27156,1.50513 -1.45658,2.48118 -0.17884,1.22254 -1.51713,1.24495 -2.33471,1.80976 -0.91269,0.49862 -1.76021,1.21447 -2.79758,1.41826 2.21965,-3.96689 4.52895,-7.88254 6.79212,-11.82455 -0.18107,-0.0946 0.12515,-0.12672 0.13257,-0.0756 z"
       id="path6342"
       inkscape:connector-curvature="0" /></g></svg>
