<?xml version="1.0" encoding="UTF-8" standalone="no"?>
<svg
   xmlns:dc="http://purl.org/dc/elements/1.1/"
   xmlns:cc="http://creativecommons.org/ns#"
   xmlns:rdf="http://www.w3.org/1999/02/22-rdf-syntax-ns#"
   xmlns:svg="http://www.w3.org/2000/svg"
   xmlns="http://www.w3.org/2000/svg"
   xmlns:sodipodi="http://sodipodi.sourceforge.net/DTD/sodipodi-0.dtd"
   xmlns:inkscape="http://www.inkscape.org/namespaces/inkscape"
   width="88"
   height="106"
   viewBox="0 0 23.28333 28.045833"
   version="1.1"
   id="svg8"
   inkscape:version="1.0.2 (1.0.2+r75+1)"
   sodipodi:docname="iquery.icon.svg">
  <defs
     id="defs2" />
  <sodipodi:namedview
     id="base"
     pagecolor="#ffffff"
     bordercolor="#666666"
     borderopacity="1.0"
     inkscape:pageopacity="0.0"
     inkscape:pageshadow="2"
     inkscape:zoom="3.959798"
     inkscape:cx="33.415097"
     inkscape:cy="79.963303"
     inkscape:document-units="px"
     inkscape:current-layer="layer1"
     inkscape:document-rotation="0"
     showgrid="false"
     units="px"
     inkscape:window-width="1920"
     inkscape:window-height="1016"
     inkscape:window-x="0"
     inkscape:window-y="27"
     inkscape:window-maximized="1" />
  <metadata
     id="metadata5">
    <rdf:RDF>
      <cc:Work
         rdf:about="">
        <dc:format>image/svg+xml</dc:format>
        <dc:type
           rdf:resource="http://purl.org/dc/dcmitype/StillImage" />
        <dc:title />
      </cc:Work>
    </rdf:RDF>
  </metadata>
  <g
     inkscape:label="Layer 1"
     inkscape:groupmode="layer"
     id="layer1"
     transform="translate(-76.748066,-118.54467)">
    <rect
       style="color:#000000;display:inline;overflow:visible;visibility:visible;fill:#ff25e9;fill-opacity:0.499243;fill-rule:evenodd;stroke:none;stroke-width:0.529167;stroke-linecap:butt;stroke-linejoin:miter;stroke-miterlimit:4;stroke-dasharray:none;stroke-dashoffset:0;stroke-opacity:1;marker:none;enable-background:accumulate"
       id="rect1654"
       width="19.198374"
       height="22.347652"
       x="76.756287"
       y="122.89454"
       rx="2.645833"
       ry="2.645833" />
    <path
       d="m 86.286074,138.99558 c 0.176765,-1.43145 0.847035,-2.70995 1.836928,-3.6616 -0.308078,0.0177 -0.623734,0.0311 -0.948046,0.0401 -0.313851,0.01 -0.627702,0.0149 -0.940109,0.0149 -0.31349,0 -0.628423,-0.005 -0.942995,-0.0151 -2.648252,-0.0725 -4.758629,-0.44661 -6.278099,-0.98016 -0.714281,-0.24061 -1.325748,-0.52417 -1.797968,-0.84848 v 2.56529 0.18037 0.18038 0.465 c 1.026689,1.07178 4.471111,2.06023 9.018701,2.06023 0.01767,0 0.03427,-7.2e-4 0.05159,-7.2e-4 z"
       id="path6"
       style="font-variation-settings:normal;opacity:1;vector-effect:none;fill:#375a7f;fill-opacity:1;stroke-width:0.264583;stroke-linecap:butt;stroke-linejoin:miter;stroke-miterlimit:4;stroke-dasharray:none;stroke-dashoffset:0;stroke-opacity:1;stop-color:#000000;stop-opacity:1" />
    <path
       d="m 85.381677,134.2539 c 0.117599,0.003 0.234848,0.007 0.354255,0.008 0.164501,0.003 0.330807,0.004 0.498554,0.004 0.167747,0 0.334052,-0.002 0.498915,-0.004 0.119043,-0.002 0.236651,-0.005 0.354255,-0.008 0.04184,-7.6e-4 0.08441,-0.002 0.125901,-0.003 4.059499,-0.12953 7.087978,-1.05158 8.03963,-2.04472 v -0.46537 -0.18038 -0.18037 -2.56528 c -1.75576,1.20598 -5.467495,1.84379 -9.0187,1.84379 -3.551203,0 -7.26294,-0.63781 -9.0187,-1.84379 v 2.56528 0.18037 0.18038 0.465 c 0.951653,0.99351 3.980132,1.91557 8.03963,2.04472 0.04184,7.6e-4 0.08441,0.002 0.126256,0.003 z"
       id="path8"
       style="font-variation-settings:normal;opacity:1;vector-effect:none;fill:#375a7f;fill-opacity:1;stroke-width:0.264583;stroke-linecap:butt;stroke-linejoin:miter;stroke-miterlimit:4;stroke-dasharray:none;stroke-dashoffset:0;stroke-opacity:1;stop-color:#000000;stop-opacity:1" />
    <path
       d="m 95.253187,127.52271 v -0.65151 -0.18038 c 0,-0.0607 -0.02021,-0.11507 -0.04869,-0.16522 -0.404763,-1.55158 -3.517297,-3.08151 -8.970003,-3.08151 -5.438998,0 -8.548285,1.52235 -8.965671,3.06996 -0.03067,0.053 -0.05302,0.11112 -0.05302,0.17677 v 0.18038 0.65151 c 1.023443,1.06817 4.443334,2.0541 9.018702,2.0541 4.575368,0 7.995619,-0.98593 9.018695,-2.0541 z"
       id="path10"
       style="fill:#375a7f;fill-opacity:1;stroke-width:0.264583" />
    <path
       d="m 86.252884,140.11065 c -0.0062,0 -0.01186,0 -0.01839,0 -4.453795,0 -7.527368,-0.82612 -9.0187,-1.87626 v 2.9585 c 0,0.0585 0.01552,0.11358 0.04221,0.1627 0.426044,1.76586 4.237708,3.08403 8.976493,3.08403 0.721497,0 1.417741,-0.034 2.08765,-0.092 -1.191551,-1.04978 -1.970406,-2.55157 -2.069251,-4.23698 z"
       id="path12"
       style="font-variation-settings:normal;opacity:1;vector-effect:none;fill:#375a7f;fill-opacity:1;stroke-width:0.264583;stroke-linecap:butt;stroke-linejoin:miter;stroke-miterlimit:4;stroke-dasharray:none;stroke-dashoffset:0;stroke-opacity:1;stop-color:#000000;stop-opacity:1" />
    <path
       id="path855"
       style="font-style:italic;font-variant:normal;font-weight:500;font-stretch:normal;font-size:18.704px;line-height:125%;font-family:LatoLatin;-inkscape-font-specification:'LatoLatin, Medium Italic';font-variant-ligatures:normal;font-variant-caps:normal;font-variant-numeric:normal;font-variant-east-asian:normal;text-align:center;letter-spacing:0px;word-spacing:0px;writing-mode:lr-tb;text-anchor:middle;fill:#00bc8c;fill-opacity:1;stroke:none;stroke-width:0.264583px;stroke-linecap:butt;stroke-linejoin:miter;stroke-opacity:1"
       sodipodi:type="inkscape:offset"
       inkscape:radius="0.80225831"
       inkscape:original="M 83.662109 132.35742 C 83.506243 132.35742 83.352757 132.39236 83.203125 132.46094 C 83.059728 132.52952 82.932536 132.62373 82.820312 132.74219 C 82.708089 132.85441 82.617409 132.98671 82.548828 133.14258 C 82.486481 133.2922 82.455078 133.45275 82.455078 133.62109 C 82.455078 133.78943 82.486481 133.95156 82.548828 134.10742 C 82.617409 134.25706 82.704558 134.39131 82.810547 134.50977 C 82.922771 134.62199 83.049962 134.71071 83.193359 134.7793 C 83.336757 134.84163 83.486711 134.87305 83.642578 134.87305 C 83.798445 134.87305 83.951931 134.84163 84.101562 134.7793 C 84.251195 134.71071 84.381917 134.62199 84.494141 134.50977 C 84.612599 134.39131 84.704856 134.25706 84.773438 134.10742 C 84.848254 133.95156 84.886719 133.78943 84.886719 133.62109 C 84.886719 133.44652 84.851784 133.2844 84.783203 133.13477 C 84.714622 132.9789 84.623943 132.84464 84.511719 132.73242 C 84.399495 132.61395 84.268773 132.52327 84.119141 132.46094 C 83.969509 132.39236 83.817976 132.35742 83.662109 132.35742 z M 92.892578 132.47852 C 92.219234 132.47852 91.57231 132.56761 90.955078 132.74219 C 90.344081 132.91676 89.777618 133.16761 89.253906 133.49805 C 88.730194 133.82225 88.252458 134.21795 87.822266 134.68555 C 87.398308 135.14691 87.037545 135.66822 86.738281 136.24805 C 86.439017 136.82787 86.208976 137.46067 86.046875 138.14648 C 85.884774 138.82606 85.802734 139.54248 85.802734 140.29688 C 85.802734 141.15102 85.928348 141.94084 86.177734 142.66406 C 86.427121 143.38105 86.784353 144.00168 87.251953 144.52539 C 87.719553 145.0491 88.284438 145.46051 88.945312 145.75977 C 89.612422 146.0528 90.363773 146.19922 91.199219 146.19922 C 91.916205 146.19922 92.601219 146.0999 93.255859 145.90039 L 95.015625 148.35938 C 95.146553 148.52149 95.298086 148.63298 95.472656 148.69531 C 95.647227 148.76389 95.852926 148.79883 96.089844 148.79883 L 97.642578 148.79883 L 94.939453 145.12305 C 95.450696 144.79261 95.912731 144.39691 96.324219 143.93555 C 96.741941 143.47419 97.094065 142.95641 97.380859 142.38281 C 97.673889 141.80923 97.898821 141.1886 98.054688 140.52148 C 98.210554 139.84814 98.287109 139.14036 98.287109 138.39844 C 98.287109 137.54429 98.163449 136.75643 97.914062 136.0332 C 97.664676 135.30998 97.305491 134.68582 96.837891 134.16211 C 96.370291 133.63216 95.803828 133.22076 95.136719 132.92773 C 94.469609 132.62847 93.721789 132.47852 92.892578 132.47852 z M 92.658203 134.08789 C 93.225558 134.08789 93.732745 134.19074 94.181641 134.39648 C 94.636771 134.60223 95.020298 134.89508 95.332031 135.27539 C 95.649999 135.6557 95.894164 136.1142 96.0625 136.65039 C 96.230836 137.18657 96.314453 137.78444 96.314453 138.44531 C 96.314453 139.38051 96.195902 140.22961 95.958984 140.99023 C 95.722067 141.74463 95.385645 142.3896 94.949219 142.92578 C 94.519027 143.45573 94.001247 143.86713 93.396484 144.16016 C 92.797956 144.44695 92.133753 144.58984 91.404297 144.58984 C 90.836942 144.58984 90.329755 144.48699 89.880859 144.28125 C 89.431963 144.0755 89.048437 143.78619 88.730469 143.41211 C 88.418735 143.0318 88.178102 142.57329 88.009766 142.03711 C 87.847664 141.50093 87.767578 140.90307 87.767578 140.24219 C 87.767578 139.30699 87.88613 138.46142 88.123047 137.70703 C 88.366199 136.9464 88.70262 136.2979 89.132812 135.76172 C 89.563004 135.22553 90.077253 134.81414 90.675781 134.52734 C 91.274309 134.23432 91.934982 134.08789 92.658203 134.08789 z M 82.464844 136.55664 L 81.324219 146.05859 L 83.119141 146.05859 L 84.269531 136.55664 L 82.464844 136.55664 z "
       d="m 83.662109,131.55469 c -0.275759,0 -0.548261,0.0656 -0.792968,0.17773 a 0.80233854,0.80233854 0 0 0 -0.01172,0.004 c -0.230988,0.11047 -0.436759,0.26713 -0.609375,0.44726 -0.179278,0.18103 -0.328749,0.39843 -0.433594,0.63672 a 0.80233854,0.80233854 0 0 0 -0.0059,0.0137 c -0.103935,0.24943 -0.15625,0.519 -0.15625,0.78711 0,0.26812 0.05324,0.53742 0.152344,0.78516 a 0.80233854,0.80233854 0 0 0 0.01562,0.0352 c 0.100112,0.21843 0.231467,0.42344 0.392579,0.60351 a 0.80233854,0.80233854 0 0 0 0.03125,0.0312 c 0.177042,0.17704 0.383773,0.32263 0.603515,0.42774 a 0.80233854,0.80233854 0 0 0 0.02539,0.0117 c 0.240525,0.10455 0.50585,0.16016 0.769531,0.16016 0.263681,0 0.526523,-0.0558 0.767578,-0.15625 a 0.80233854,0.80233854 0 0 0 0.02539,-0.0117 c 0.226959,-0.10403 0.442008,-0.24865 0.625,-0.43164 0.183798,-0.1838 0.331295,-0.39913 0.4375,-0.6289 0.120193,-0.25305 0.191406,-0.53836 0.191406,-0.82618 0,-0.28018 -0.05991,-0.56206 -0.175781,-0.8164 -0.103396,-0.23254 -0.249856,-0.44698 -0.429688,-0.62891 -0.180301,-0.1881 -0.400724,-0.342 -0.642578,-0.44531 -0.239644,-0.10811 -0.507572,-0.17578 -0.779297,-0.17578 z m 9.230469,0.12109 c -0.744108,0 -1.466533,0.0998 -2.15625,0.29492 a 0.80233854,0.80233854 0 0 0 -0.002,0 c -0.677995,0.19372 -1.314432,0.47556 -1.902344,0.84571 -0.0012,7.4e-4 -0.0027,0.001 -0.0039,0.002 -7.28e-4,4.6e-4 -0.0012,0.001 -0.002,0.002 -0.584144,0.36237 -1.117484,0.80459 -1.59375,1.32227 -0.474262,0.5161 -0.877133,1.09909 -1.207031,1.73828 -0.331525,0.64232 -0.583993,1.33838 -0.759766,2.08203 C 85.088466,138.70627 85,139.48498 85,140.29688 c 0,0.93279 0.13892,1.814 0.419922,2.6289 a 0.80233854,0.80233854 0 0 0 0,0.002 c 0.28029,0.80584 0.692254,1.52564 1.234375,2.13282 0.542366,0.60744 1.20486,1.08731 1.960937,1.42968 a 0.80233854,0.80233854 0 0 0 0.0078,0.004 c 0.780089,0.34266 1.64699,0.50781 2.576172,0.50781 0.581367,0 1.13234,-0.12585 1.683593,-0.24609 l 1.480469,2.07031 a 0.80233854,0.80233854 0 0 0 0.02734,0.0371 c 0.205479,0.25442 0.486291,0.46429 0.802734,0.58008 0.284138,0.10943 0.585407,0.1582 0.896485,0.1582 h 1.552734 a 0.80233854,0.80233854 0 0 0 0.646484,-1.27734 l -2.267578,-3.08203 c 0.304165,-0.24923 0.631058,-0.47063 0.896485,-0.76758 l 0.002,-0.002 c 0.466815,-0.51596 0.860248,-1.09549 1.177734,-1.73047 0.322669,-0.63273 0.569072,-1.31484 0.738282,-2.03907 0.170705,-0.73744 0.253906,-1.50758 0.253906,-2.30468 0,-0.93158 -0.136692,-1.81124 -0.417969,-2.62696 -0.280101,-0.81229 -0.692664,-1.5353 -1.234375,-2.14257 -0.543053,-0.61486 -1.211345,-1.09705 -1.976562,-1.4336 -0.779194,-0.3489 -1.643783,-0.51953 -2.56836,-0.51953 z m -0.234375,3.21484 c 0.4704,0 0.856566,0.0818 1.189453,0.23438 a 0.80233854,0.80233854 0 0 0 0.0039,0.002 c 0.34891,0.15773 0.624154,0.36929 0.859376,0.65625 a 0.80233854,0.80233854 0 0 0 0.0059,0.006 c 0.244076,0.29193 0.438999,0.65219 0.580078,1.10156 0.140026,0.44601 0.214844,0.96149 0.214844,1.55469 0,0.8674 -0.109258,1.63533 -0.31836,2.30664 -0.210985,0.67114 -0.502514,1.21994 -0.867187,1.66797 -0.359713,0.44313 -0.777995,0.77468 -1.279297,1.01758 -0.482739,0.23068 -1.019308,0.34961 -1.642578,0.34961 -0.4704,0 -0.856566,-0.0818 -1.189453,-0.23438 -0.345056,-0.15815 -0.624276,-0.37198 -0.867188,-0.65625 -0.236825,-0.29066 -0.429348,-0.64973 -0.570312,-1.09765 -3e-4,-9.6e-4 -0.0017,-0.001 -0.002,-0.002 -0.134152,-0.44656 -0.205078,-0.96165 -0.205079,-1.55469 0,-0.8674 0.109866,-1.63104 0.31836,-2.29492 0.217913,-0.68003 0.509612,-1.23549 0.86914,-1.6836 0.360246,-0.44901 0.773264,-0.77868 1.263672,-1.01367 a 0.80233854,0.80233854 0 0 0 0.0078,-0.002 c 0.483928,-0.23692 1.013974,-0.35743 1.628906,-0.35743 z m -10.193359,0.86329 a 0.80233854,0.80233854 0 0 0 -0.796875,0.70703 l -1.140625,9.50195 a 0.80233854,0.80233854 0 0 0 0.796875,0.89844 h 1.794922 a 0.80233854,0.80233854 0 0 0 0.796875,-0.70703 l 1.15039,-9.50196 a 0.80233854,0.80233854 0 0 0 -0.796875,-0.89843 z"
       transform="translate(0.46772166)" />
  </g>
</svg>
